<?xml version="1.0" encoding="utf-8"?>
<!-- Generator: Adobe Illustrator 22.1.0, SVG Export Plug-In . SVG Version: 6.00 Build 0)  -->
<svg version="1.1" id="Layer_1" xmlns="http://www.w3.org/2000/svg" xmlns:xlink="http://www.w3.org/1999/xlink" x="0px" y="0px"
	 viewBox="0 0 104.6 111.7" style="enable-background:new 0 0 104.6 111.7;" xml:space="preserve">
<style type="text/css">
	.st0{fill:#64B646;stroke:#000000;stroke-width:0.65;stroke-miterlimit:10;}
	.st1{fill:#065990;stroke:#000000;stroke-width:0.65;stroke-miterlimit:10;}
</style>
<g>
	<path class="st0" d="M57.9,51.2l45.5-45.9c1.8-1.9,0.5-5-2.1-5H10.4c-2.6,0-3.9,3.1-2.1,5l45.5,45.9C54.9,52.4,56.8,52.4,57.9,51.2
		z"/>
	<path class="st0" d="M53.7,60.4L8.3,106.3c-1.8,1.9-0.5,5,2.1,5h90.9c2.6,0,3.9-3.1,2.1-5L57.9,60.4C56.8,59.3,54.9,59.3,53.7,60.4
		z"/>
	<path class="st1" d="M51.2,53.6L5.3,8.1c-1.9-1.8-5-0.5-5,2.1v90.9c0,2.6,3.1,3.9,5,2.1l45.9-45.5C52.4,56.6,52.4,54.7,51.2,53.6z"
		/>
</g>
</svg>
