<?xml version="1.0" encoding="utf-8"?>
<!-- Generator: Adobe Illustrator 22.1.0, SVG Export Plug-In . SVG Version: 6.00 Build 0)  -->
<svg version="1.1" id="Layer_1" xmlns="http://www.w3.org/2000/svg" xmlns:xlink="http://www.w3.org/1999/xlink" x="0px" y="0px"
	 viewBox="0 0 104.6 111.7" style="enable-background:new 0 0 104.6 111.7;" xml:space="preserve">
<style type="text/css">
	.st0{fill:#FFFFFF;}
</style>
<g>
	<g>
		<path class="st0" d="M55.9,51.8c-0.7,0-1.3-0.3-1.8-0.8L8.5,5.1C7.8,4.3,7.6,3.2,8,2.2c0.4-1,1.3-1.6,2.4-1.6h90.9
			c1.1,0,2,0.6,2.4,1.6c0.4,1,0.2,2.1-0.5,2.9L57.7,51C57.2,51.5,56.5,51.8,55.9,51.8z"/>
		<path d="M101.3,0.9c0.9,0,1.7,0.5,2.1,1.4c0.3,0.7,0.3,1.7-0.5,2.5L57.4,50.8c-0.4,0.4-1,0.7-1.6,0.7s-1.2-0.2-1.6-0.7L8.8,4.9
			C8,4,8,3,8.3,2.3c0.4-0.9,1.2-1.4,2.1-1.4H101.3 M101.3,0.3H10.4c-2.6,0-3.9,3.1-2.1,5l45.5,45.9c0.5,0.6,1.3,0.9,2,0.9
			s1.5-0.3,2-0.9l45.5-45.9C105.2,3.4,103.9,0.3,101.3,0.3L101.3,0.3z"/>
	</g>
	<g>
		<path class="st0" d="M10.4,111c-1.1,0-2-0.6-2.4-1.6c-0.4-1-0.2-2.1,0.5-2.9l45.4-45.9c0.5-0.5,1.2-0.7,1.9-0.7
			c0.7,0,1.4,0.3,1.8,0.7l45.5,45.9c0.7,0.8,0.9,1.9,0.5,2.9c-0.4,1-1.3,1.6-2.4,1.6H10.4z"/>
		<path d="M55.8,60.2c0.6,0,1.2,0.2,1.6,0.6l45.5,45.9c0.8,0.8,0.8,1.9,0.5,2.5c-0.4,0.9-1.2,1.4-2.1,1.4H10.4
			c-0.9,0-1.7-0.5-2.1-1.4c-0.3-0.7-0.3-1.7,0.5-2.5l45.4-45.9C54.6,60.5,55.2,60.2,55.8,60.2 M55.8,59.6c-0.8,0-1.5,0.3-2.1,0.8
			L8.3,106.3c-1.8,1.9-0.5,5,2.1,5h90.9c2.6,0,3.9-3.1,2.1-5L57.9,60.4C57.4,59.8,56.6,59.6,55.8,59.6L55.8,59.6z"/>
	</g>
	<g>
		<path class="st0" d="M3.2,103.7c-1.3,0-2.6-1-2.6-2.6V10.2c0-1.6,1.3-2.6,2.6-2.6c0.7,0,1.3,0.3,1.8,0.7L51,53.8
			c0.5,0.5,0.8,1.1,0.8,1.8c0,0.7-0.3,1.3-0.8,1.8L5.1,103C4.6,103.5,3.9,103.7,3.2,103.7C3.2,103.7,3.2,103.7,3.2,103.7z"/>
		<path d="M3.2,7.9c0.4,0,1,0.1,1.6,0.6l45.9,45.5c0.4,0.4,0.7,1,0.7,1.6s-0.2,1.2-0.7,1.6L4.9,102.7c-0.6,0.5-1.2,0.7-1.6,0.7
			c-1.1,0-2.3-0.9-2.3-2.3V10.2C1,8.8,2.1,7.9,3.2,7.9 M3.2,7.3c-1.5,0-2.9,1.2-2.9,2.9v90.9c0,1.8,1.4,2.9,2.9,2.9
			c0.7,0,1.4-0.3,2.1-0.8l45.9-45.5c1.2-1.1,1.2-3,0-4.1L5.3,8.1C4.7,7.5,4,7.3,3.2,7.3L3.2,7.3z"/>
	</g>
</g>
</svg>
