<?xml version="1.0" encoding="utf-8"?>
<!-- Generator: Adobe Illustrator 22.1.0, SVG Export Plug-In . SVG Version: 6.00 Build 0)  -->
<svg version="1.1" xmlns="http://www.w3.org/2000/svg" xmlns:xlink="http://www.w3.org/1999/xlink" x="0px" y="0px"
	 viewBox="0 0 103 144" style="enable-background:new 0 0 103 144;" xml:space="preserve">
<style type="text/css">
	.st0{fill:#FFFFFF;stroke:#000000;stroke-width:0.1;stroke-miterlimit:10;}
	.st1{opacity:0.5;}
	.st2{fill:#64B646;}
	.st3{fill:#065990;}
</style>
<g id="Layer_3">
	<rect class="st0" width="103" height="144"/>
</g>
<g id="Layer_2">
	<g class="st1">
		<path class="st2" d="M52.9,70.8l11.3-11.6c0.4-0.5,0.1-1.3-0.5-1.3H41c-0.6,0-1,0.8-0.5,1.3l11.3,11.6
			C52.1,71.1,52.6,71.1,52.9,70.8z"/>
		<path class="st2" d="M51.8,73.2L40.5,84.7C40.1,85.2,40.4,86,41,86h22.7c0.6,0,1-0.8,0.5-1.3L52.9,73.2
			C52.6,72.9,52.1,72.9,51.8,73.2z"/>
		<path class="st3" d="M51.2,71.4L39.8,60c-0.5-0.5-1.2-0.1-1.2,0.5v22.9c0,0.7,0.8,1,1.2,0.5l11.4-11.5
			C51.5,72.2,51.5,71.7,51.2,71.4z"/>
	</g>
</g>
</svg>
