<?xml version="1.0" encoding="utf-8"?>
<!-- Generator: Adobe Illustrator 22.1.0, SVG Export Plug-In . SVG Version: 6.00 Build 0)  -->
<svg version="1.1" xmlns="http://www.w3.org/2000/svg" xmlns:xlink="http://www.w3.org/1999/xlink" x="0px" y="0px"
	 viewBox="0 0 144.1 103.1" style="enable-background:new 0 0 144.1 103.1;" xml:space="preserve">
<style type="text/css">
	.st0{fill:#FFFFFF;}
	.st1{opacity:0.5;}
	.st2{fill:#64B646;}
	.st3{fill:#065990;}
</style>
<g id="Layer_3">
	<rect x="0.1" y="0.1" class="st0" width="144" height="103"/>
</g>
<g id="Layer_2">
	<g class="st1">
		<path class="st2" d="M73.5,50.4l11.3-11.6c0.4-0.5,0.1-1.3-0.5-1.3H61.6c-0.6,0-1,0.8-0.5,1.3l11.3,11.6
			C72.7,50.7,73.2,50.7,73.5,50.4z"/>
		<path class="st2" d="M72.4,52.7L61.1,64.3c-0.4,0.5-0.1,1.3,0.5,1.3h22.7c0.6,0,1-0.8,0.5-1.3L73.5,52.7
			C73.2,52.4,72.7,52.4,72.4,52.7z"/>
		<path class="st3" d="M71.8,51L60.3,39.5c-0.5-0.5-1.2-0.1-1.2,0.5V63c0,0.7,0.8,1,1.2,0.5L71.8,52C72.1,51.7,72.1,51.3,71.8,51z"
			/>
	</g>
</g>
</svg>
