<?xml version="1.0" encoding="utf-8"?>
<!-- Generator: Adobe Illustrator 22.1.0, SVG Export Plug-In . SVG Version: 6.00 Build 0)  -->
<svg version="1.1" id="Layer_1" xmlns="http://www.w3.org/2000/svg" xmlns:xlink="http://www.w3.org/1999/xlink" x="0px" y="0px"
	 viewBox="0 0 301 71" style="enable-background:new 0 0 301 71;" xml:space="preserve">
<style type="text/css">
	.st0{fill:#065990;}
</style>
<path id="Shape_1" class="st0" d="M60,36.2V36c0-11.9,6.9-20.9,17.9-20.9c12.5,0,17.5,11.2,17.5,21.3c0,0.2,0,0.2,0,0.3H61.8
	c0.3,11.6,4.2,19,16.9,19c9.4,0,14.4-8.9,14.4-13.6l1.8,0.1c0,8-7.2,15.1-16.2,15.1C65.1,57.3,60,49.1,60,36.2L60,36.2z M93.5,35.1
	c-0.3-9.2-5.3-18.4-15.8-18.4c-9.8,0-15.6,7.9-16,18.4H93.5z M264.9,36.2V36c0-11.1,5.8-20.7,18.2-20.7c12.4,0,17.8,9.5,17.8,20.6
	V36c0,11.1-5.4,20.7-17.8,20.7C270.8,56.8,264.9,47.3,264.9,36.2z M299.1,36.1v-0.2c0-10.4-5-19.1-16.1-19.1
	c-11.2,0-16.4,8.7-16.4,19.1v0.2c0,10.4,5.4,19.1,16.5,19.1C294.3,55.2,299.1,46.5,299.1,36.1z M256.7,0.4h1.5v7.1h-1.5V0.4z
	 M256.7,16.3h1.7v39.6h-1.7V16.3z M212.3,36.8v-0.2c0-11.5,5.4-21.5,16.9-21.5c9.2,0,14.6,3.8,16.9,11.4V0h1.7v55.9h-1.7v-11
	c-2.3,7.5-7.3,12.2-16.4,12.2C218.2,57.1,212.3,48.2,212.3,36.8z M245.7,36.8v-2c0-10.2-5.7-18.1-16.4-18.1
	c-10.9,0-15.3,9.3-15.3,19.9v0.2c0,10.5,4.9,18.9,15.7,18.9C240.5,55.6,245.7,47,245.7,36.8L245.7,36.8z M173,36.2V36
	c0-11.9,6.9-20.9,17.9-20.9c12.5,0,17.5,11.2,17.5,21.3c0,0.2,0,0.2,0,0.3h-33.5c0.3,11.6,4.2,19,16.9,19c9.4,0,14.4-8.9,14.4-13.6
	l1.8,0.1c0,8-7.2,15.1-16.2,15.1C178.1,57.3,173,49.1,173,36.2L173,36.2z M206.5,35.1c-0.3-9.2-5.3-18.4-15.8-18.4
	c-9.8,0-15.6,7.9-16,18.4H206.5z M133.1,16.1h1.7v11.3c2.3-7.5,7.7-12.2,16.9-12.2c11.5,0,16.5,9.2,16.5,20.7v0.2
	c0,11.5-6,21-17.5,21c-9.2,0-13.6-5-15.9-12.5V70h-1.7V16.1z M166.4,36v-0.2c0-10.5-4-19.2-14.9-19.2c-10.8,0-16.7,8.8-16.7,19.1
	v0.2c0,10.2,5,19.4,15.7,19.4C161.4,55.3,166.4,46.6,166.4,36L166.4,36z M112.3,35.3L97.8,16.1h2l13.5,18.2l13.2-17.8h1.9
	l-14.1,18.9l15.9,21.1h-2l-14.9-20.1L98,56.4h-1.9L112.3,35.3z"/>
</svg>
