
<svg xmlns="http://www.w3.org/2000/svg" viewBox="0 0 301 71" width="301" height="71">
	<style>
		tspan { white-space:pre }
		.shp0 { fill: #065990 } 
		.shp1 { fill: #64b646 } 
	</style>
	<path id="Shape 1" class="shp0" d="M59.98,36.16v-0.16c0,-11.91 6.85,-20.93 17.86,-20.93c12.51,0 17.49,11.19 17.49,21.26c0,0.16 0,0.24 0,0.32h-33.53c0.32,11.59 4.17,19 16.91,19c9.38,0 14.36,-8.91 14.36,-13.56l1.77,0.11c0,7.99 -7.24,15.06 -16.21,15.06c-13.56,0 -18.65,-8.13 -18.65,-21.1zM93.51,35.12c-0.32,-9.18 -5.3,-18.44 -15.75,-18.44c-9.82,0 -15.56,7.89 -15.96,18.44zM264.91,36.18v-0.16c0,-11.08 5.76,-20.74 18.18,-20.74c12.35,0 17.79,9.5 17.79,20.58v0.16c0,11.08 -5.36,20.74 -17.79,20.74c-12.34,0 -18.18,-9.5 -18.18,-20.58zM299.14,36.1v-0.16c0,-10.37 -5.04,-19.08 -16.12,-19.08c-11.17,0 -16.37,8.71 -16.37,19.08v0.16c0,10.37 5.44,19.08 16.52,19.08c11.17,0 15.97,-8.71 15.97,-19.08zM256.73,0.37h1.46v7.14h-1.46zM256.69,16.31h1.67v39.58h-1.67zM212.29,36.75v-0.16c0,-11.47 5.45,-21.51 16.93,-21.51c9.18,0 14.56,3.84 16.86,11.36v-26.48h1.66v55.93h-1.66v-10.98c-2.3,7.52 -7.25,12.22 -16.43,12.22c-11.48,0 -17.36,-8.9 -17.36,-20.38zM245.73,36.75v-2.01c0,-10.21 -5.74,-18.08 -16.43,-18.08c-10.85,0 -15.27,9.25 -15.27,19.86v0.15c0,10.53 4.85,18.88 15.7,18.88c10.76,0 16,-8.51 16,-18.8zM172.98,36.16v-0.16c0,-11.91 6.85,-20.93 17.86,-20.93c12.51,0 17.49,11.19 17.49,21.26c0,0.16 0,0.24 0,0.32h-33.53c0.32,11.59 4.17,19 16.91,19c9.38,0 14.36,-8.91 14.36,-13.56l1.77,0.11c0,7.99 -7.24,15.06 -16.21,15.06c-13.56,0 -18.65,-8.13 -18.65,-21.1zM206.51,35.12c-0.32,-9.18 -5.3,-18.44 -15.75,-18.44c-9.82,0 -15.56,7.89 -15.96,18.44zM133.11,16.07h1.66v11.27c2.3,-7.52 7.68,-12.22 16.86,-12.22c11.48,0 16.51,9.18 16.51,20.66v0.16c0,11.48 -6.03,20.95 -17.51,20.95c-9.18,0 -13.56,-4.99 -15.86,-12.51v25.65h-1.66zM166.4,36.02v-0.16c0,-10.53 -4,-19.16 -14.85,-19.16c-10.76,0 -16.71,8.79 -16.71,19.08v0.16c0,10.21 5.03,19.36 15.71,19.36c10.85,0 15.85,-8.67 15.85,-19.28zM112.28,35.34l-14.51,-19.27h1.98l13.48,18.24l13.15,-17.84h1.9l-14.1,18.87l15.93,21.11h-1.97l-14.91,-20.08l-15.19,20.08h-1.9z" />
	<path id="Shape 1 copy" class="shp1" d="M5.06,3.19l29.33,29c0,0 0.17,2 2.17,0c2,-2 29,-29 29,-29c0,0 2.25,-2.5 -2.5,-2.5c-4.75,0 -57,0 -57,0c0,0 -2,1.25 -1,2.5zM66.06,68.31l-29.33,-29c0,0 -0.17,-2 -2.17,0c-2,2 -29,29 -29,29c0,0 -2.25,2.5 2.5,2.5c4.75,0 57,0 57,0c0,0 2,-1.25 1,-2.5z" />
	<path id="Shape 1 copy 3" class="shp0" d="M2.81,65.99l29,-29.33c0,0 2,-0.17 0,-2.17c-2,-2 -29,-29 -29,-29c0,0 -2.5,-2.25 -2.5,2.5c0,4.75 0,57 0,57c0,0 1.25,2 2.5,1z" />
</svg>