<?xml version="1.0" encoding="utf-8"?>
<!-- Generator: Adobe Illustrator 22.1.0, SVG Export Plug-In . SVG Version: 6.00 Build 0)  -->
<svg version="1.1" id="Layer_18" xmlns="http://www.w3.org/2000/svg" xmlns:xlink="http://www.w3.org/1999/xlink" x="0px" y="0px"
	 viewBox="0 0 5.5 5.3" style="enable-background:new 0 0 5.5 5.3;" xml:space="preserve">
<style type="text/css">
	.st0{fill:#FFFFFF;stroke:#404040;stroke-width:0.25;stroke-miterlimit:10;}
</style>
<path class="st0" d="M3.1,0.5c0,0.4,0,1.4,0,1.7c0,0,0,0.1,0.1,0.1c0.2,0,0.5,0,0.7,0c0.2,0,0.1,0.2-0.1,0.4L2.9,3.6
	c-0.1,0.1-0.3,0.1-0.4,0C2.2,3.3,1,2.2,1.5,2.2c0.1,0,0.5,0,0.7,0c0.1,0,0.1,0,0.1-0.1c0-0.3,0-1.1,0-1.6c0,0,0-0.4,0.4-0.4
	S3.1,0.4,3.1,0.5z"/>
<g>
	<path class="st0" d="M2.7,4.5H0.8V3.4c0-0.1-0.1-0.2-0.2-0.2H0.3c-0.1,0-0.2,0.1-0.2,0.2v1.5c0,0.1,0.1,0.2,0.2,0.2h0.2h2.2"/>
	<g>
		<path class="st0" d="M2.7,4.5h1.9V3.4c0-0.1,0.1-0.2,0.2-0.2h0.3c0.1,0,0.2,0.1,0.2,0.2v1.5c0,0.1-0.1,0.2-0.2,0.2H4.9H2.7"/>
	</g>
</g>
</svg>
