<?xml version="1.0" encoding="utf-8"?>
<!-- Generator: Adobe Illustrator 22.1.0, SVG Export Plug-In . SVG Version: 6.00 Build 0)  -->
<svg version="1.1" id="Layer_18" xmlns="http://www.w3.org/2000/svg" xmlns:xlink="http://www.w3.org/1999/xlink" x="0px" y="0px"
	 viewBox="0 0 12 12" style="enable-background:new 0 0 12 12;" xml:space="preserve">
<style type="text/css">
	.st0{fill:#FFFFFF;stroke:#404040;stroke-width:0.25;stroke-miterlimit:10;}
</style>
<path class="st0" d="M11,6.1c0,2.8-2.2,5-5,5s-5-2.2-5-5s2.2-5,5-5S11,3.4,11,6.1z"/>
<path class="st0" d="M6.3,3.6c0,0.4,0,1.4,0,1.7c0,0,0,0.1,0.1,0.1c0.2,0,0.5,0,0.7,0S7.2,5.6,7,5.8L6.1,6.7C6,6.8,5.8,6.8,5.7,6.7
	c-0.3-0.3-1.5-1.4-1-1.4c0.1,0,0.5,0,0.7,0c0.1,0,0.1,0,0.1-0.1c0-0.3,0-1.1,0-1.6c0,0,0-0.4,0.4-0.4S6.3,3.5,6.3,3.6z"/>
<g>
	<path class="st0" d="M5.9,7.6H4V6.5c0-0.1-0.1-0.2-0.2-0.2H3.5c-0.1,0-0.2,0.1-0.2,0.2V8c0,0.1,0.1,0.2,0.2,0.2h0.2h2.2"/>
	<g>
		<path class="st0" d="M5.9,7.6h1.9V6.5c0-0.1,0.1-0.2,0.2-0.2h0.3c0.1,0,0.2,0.1,0.2,0.2V8c0,0.1-0.1,0.2-0.2,0.2H8.1H5.9"/>
	</g>
</g>
</svg>
