<?xml version="1.0" encoding="utf-8"?>
<!-- Generator: Adobe Illustrator 22.1.0, SVG Export Plug-In . SVG Version: 6.00 Build 0)  -->
<svg version="1.1" xmlns="http://www.w3.org/2000/svg" xmlns:xlink="http://www.w3.org/1999/xlink" x="0px" y="0px"
	 viewBox="0 0 12 12" style="enable-background:new 0 0 12 12;" xml:space="preserve">
<style type="text/css">
	.st0{display:none;}
	.st1{display:inline;}
	.st2{fill:none;stroke:#404040;stroke-width:0.25;stroke-miterlimit:10;}
</style>
<g id="EXPEDIO_LOGO_1_" class="st0">
	<g id="soc_media_1_" class="st1">
		<g id="youtube_xA0_Image_1_">
		</g>
		<g id="email_xA0_Image_1_">
			
				<image style="overflow:visible;" width="49" height="49" id="email_xA0_Image" xlink:href="9A94A49E.png"  transform="matrix(0.24 0 0 0.24 0.97 1.22)">
			</image>
		</g>
	</g>
</g>
<g id="Layer_17" class="st0">
</g>
<g id="Layer_18">
	<path class="st2" d="M11,6.1c0,2.8-2.2,5-5,5s-5-2.2-5-5s2.2-5,5-5S11,3.4,11,6.1z"/>
	<path class="st2" d="M4.5,4.6h3.7c0.2,0,0.3,0.1,0.3,0.3v3c0,0.2-0.1,0.3-0.3,0.3H4.5C4.3,8.2,4.2,8,4.2,7.9v-3
		C4.2,4.7,4.3,4.6,4.5,4.6z"/>
	<path class="st2" d="M4.4,4.8l1.7,2C6.2,7,6.4,7,6.5,6.8l1.7-2"/>
</g>
</svg>
