<?xml version="1.0" encoding="utf-8"?>
<!-- Generator: Adobe Illustrator 22.1.0, SVG Export Plug-In . SVG Version: 6.00 Build 0)  -->
<svg version="1.1" xmlns="http://www.w3.org/2000/svg" xmlns:xlink="http://www.w3.org/1999/xlink" x="0px" y="0px"
	 viewBox="0 0 12 12" style="enable-background:new 0 0 12 12;" xml:space="preserve">
<style type="text/css">
	.st0{display:none;}
	.st1{display:inline;}
	.st2{fill:none;stroke:#FFFFFF;stroke-width:0.5;stroke-miterlimit:10;}
	.st3{fill:#FFFFFF;stroke:#404040;stroke-width:0.25;stroke-miterlimit:10;}
</style>
<g id="Layer_1">
	<g id="EXPEDIO_LOGO_1_" class="st0">
		<g id="soc_media_1_" class="st1">
			<g id="youtube_xA0_Image_1_">
			</g>
		</g>
	</g>
	<g id="Layer_17" class="st0">
	</g>
	<g id="Layer_18">
		<path class="st2" d="M1,11.1L1,11.1l1-1.9C1.4,8.3,1,7.3,1,6.1c0-2.3,1.5-4.2,3.5-4.8C5,1.2,5.5,1.1,6,1.1c2.8,0,5,2.3,5,5
			c0,2.8-2.2,5-5,5c-1.1,0-2.1-0.3-2.9-0.9L1,11.1z M0.5,11.6"/>
	</g>
	<path class="st3" d="M3.1,10.2"/>
	<path class="st3" d="M3.1,10.2"/>
	<path class="st3" d="M5.1,10"/>
</g>
<g id="Layer_2">
	<polygon class="st2" points="3.2,7 5.3,4.7 6.3,5.8 8.4,4.7 6.1,7.1 5.1,6 	"/>
</g>
</svg>
