<?xml version="1.0" encoding="utf-8"?>
<!-- Generator: Adobe Illustrator 22.1.0, SVG Export Plug-In . SVG Version: 6.00 Build 0)  -->
<svg version="1.1" xmlns="http://www.w3.org/2000/svg" xmlns:xlink="http://www.w3.org/1999/xlink" x="0px" y="0px"
	 viewBox="0 0 12 12" style="enable-background:new 0 0 12 12;" xml:space="preserve">
<style type="text/css">
	.st0{display:none;}
	.st1{display:inline;}
	.st2{fill:none;stroke:#404040;stroke-width:0.25;stroke-miterlimit:10;}
	.st3{fill:none;stroke:#000000;stroke-width:0.25;stroke-miterlimit:10;}
</style>
<g id="EXPEDIO_LOGO_1_" class="st0">
	<g id="soc_media_1_" class="st1">
		<g id="youtube_xA0_Image_1_">
			
				<image style="overflow:visible;" width="49" height="51" id="youtube_xA0_Image" xlink:href="338AAB54.png"  transform="matrix(0.24 0 0 0.24 1.1325 1.1694)">
			</image>
		</g>
	</g>
</g>
<g id="Layer_17" class="st0">
</g>
<g id="Layer_18">
	<path class="st2" d="M11,6.1c0,2.8-2.2,5-5,5s-5-2.2-5-5s2.2-5,5-5S11,3.4,11,6.1z"/>
	<path class="st3" d="M4.2,4.6H8c0.2,0,0.4,0.2,0.4,0.4v2.9C8.4,8,8.2,8.2,8,8.2H4.2C4.1,8.2,3.9,8,3.9,7.8V5
		C3.9,4.8,4.1,4.6,4.2,4.6z"/>
	<path class="st3" d="M5.6,5.5c0,0.3,0,1.5,0,1.8s1.6-0.7,1.6-0.9C7.1,6.2,5.6,5.3,5.6,5.5z"/>
</g>
</svg>
