<?xml version="1.0" encoding="utf-8"?>
<!-- Generator: Adobe Illustrator 22.1.0, SVG Export Plug-In . SVG Version: 6.00 Build 0)  -->
<svg version="1.1" id="Layer_1" xmlns="http://www.w3.org/2000/svg" xmlns:xlink="http://www.w3.org/1999/xlink" x="0px" y="0px"
	 viewBox="0 0 12 12" style="enable-background:new 0 0 12 12;" xml:space="preserve">
<style type="text/css">
	.st0{display:none;}
	.st1{display:inline;}
	.st2{fill:#FFFFFF;stroke:#404040;stroke-width:0.25;stroke-miterlimit:10;}
	.st3{fill:none;stroke:#404040;stroke-width:0.25;stroke-miterlimit:10;}
</style>
<g id="Layer_1_1_">
	<g id="EXPEDIO_LOGO_1_" class="st0">
		<g id="soc_media_1_" class="st1">
			<g id="youtube_xA0_Image_1_">
			</g>
		</g>
	</g>
	<g id="Layer_17" class="st0">
	</g>
	<g id="Layer_18">
		<path class="st2" d="M11,6.1c0,2.8-2.2,5-5,5s-5-2.2-5-5s2.2-5,5-5S11,3.4,11,6.1z"/>
	</g>
</g>
<g id="Layer_2_1_">
	<path class="st3" d="M4.1,4.3h3.8c0.2,0,0.4,0.2,0.4,0.4v2.9c0,0.1-0.2,0.3-0.4,0.3H4.1C4,7.9,3.8,7.7,3.8,7.5V4.7
		C3.8,4.5,4,4.3,4.1,4.3z"/>
	<path class="st3" d="M6.9,6L5.3,5C5.2,5,5,5,5,5.2V7c0,0.1,0.1,0.2,0.3,0.1l1.6-0.9C7,6.2,7,6,6.9,6z"/>
</g>
</svg>
